<?xml version="1.0" encoding="UTF-8"?>
<svg width="462px" height="170px" viewBox="0 0 462 170" version="1.1" xmlns="http://www.w3.org/2000/svg" xmlns:xlink="http://www.w3.org/1999/xlink">
    <!-- Generator: Sketch 51.3 (57544) - http://www.bohemiancoding.com/sketch -->
    <title>1188_Logo_outline</title>
    <desc>Created with Sketch.</desc>
    <defs></defs>
    <g id="1188_Logo_outline" stroke="none" stroke-width="1" fill="none" fill-rule="evenodd">
        <path d="M92.961,49.151 L92.961,136.018 C92.961,151.7 80.239,164.423 64.556,164.423 C56.707,164.423 49.614,161.237 44.466,156.107 C39.336,150.96 36.151,143.868 36.151,136.018 L36.151,4.323 L37.064,4.323 C37.942,29.681 58.772,49.942 84.354,49.942 C87.297,49.942 90.172,49.667 92.961,49.151 Z M36.151,4.323 L36.151,61.132 L31.848,61.132 C16.165,61.132 3.443,48.411 3.443,32.728 C3.443,17.045 16.165,4.323 31.848,4.323 L36.151,4.323 Z M205.72,3.462 L205.72,135.157 C205.72,150.84 192.998,163.562 177.315,163.562 C169.465,163.562 162.372,160.377 157.225,155.247 C152.095,150.1 148.91,143.007 148.91,135.157 L148.91,60.271 L190.226,60.271 L190.226,3.462 L205.72,3.462 Z M148.91,60.272 L190.226,60.272 L190.226,3.462 L148.91,3.462 L148.91,60.272 Z M148.91,3.462 L148.91,60.271 L144.606,60.271 C128.923,60.271 116.202,47.55 116.202,31.867 C116.202,16.184 128.923,3.462 144.606,3.462 L148.91,3.462 Z M92.961,4.323 L92.961,49.151 C90.172,49.667 87.297,49.942 84.354,49.942 C58.772,49.942 37.942,29.681 37.064,4.323 L92.961,4.323 Z M458.333,117.081 C458.333,143.455 436.952,164.836 410.579,164.836 C384.206,164.836 362.824,143.455 362.824,117.081 C362.824,98.386 373.583,82.187 389.232,74.354 C395.309,78.502 402.66,80.93 410.579,80.93 C418.48,80.93 425.848,78.502 431.925,74.354 C447.574,82.187 458.333,98.386 458.333,117.081 Z M317.6,155.144 C317.187,155.505 316.55,155.058 316.74,154.541 C318.96,148.31 319.855,141.44 319.046,134.296 C316.654,113.087 299.111,96.303 277.816,94.822 C262.874,93.772 249.377,100.056 240.529,110.437 C240.218,110.815 239.599,110.54 239.685,110.04 C242.439,95.132 252.131,82.651 265.301,76.075 C271.377,80.224 278.711,82.651 286.63,82.651 C294.532,82.651 301.866,80.241 307.925,76.109 C322.833,83.615 333.386,98.729 334.316,116.187 C335.142,131.8 328.48,145.882 317.6,155.144 Z M324.503,44.778 C324.503,57.775 317.945,69.258 307.977,76.075 C307.959,76.092 307.943,76.092 307.925,76.109 C301.866,80.241 294.532,82.651 286.63,82.651 C278.711,82.651 271.377,80.224 265.301,76.075 L265.284,76.075 C260.136,72.546 255.902,67.777 253.009,62.2 C252.837,61.872 253.113,61.511 253.474,61.563 C254.077,61.666 254.679,61.735 255.282,61.787 C255.54,61.821 255.815,61.855 256.091,61.872 C256.28,61.89 256.469,61.907 256.659,61.907 C257.003,61.941 257.331,61.958 257.674,61.958 C258.139,61.976 258.622,61.993 259.086,61.993 C260.309,61.993 261.497,61.941 262.684,61.821 C263.27,61.77 263.837,61.7 264.406,61.614 C265.026,61.528 265.628,61.442 266.231,61.305 C283.101,58.103 296.012,43.676 296.908,26.065 C296.942,25.428 296.959,24.774 296.959,24.12 C296.959,24.103 296.959,24.103 296.959,24.085 L296.959,23.414 C296.959,23.018 296.942,22.64 296.908,22.261 C296.908,22.071 296.89,21.882 296.874,21.71 C296.838,21.039 296.788,20.367 296.701,19.713 C296.632,18.99 296.512,18.267 296.391,17.561 C296.305,17.045 296.202,16.528 296.082,16.029 C295.565,13.636 294.825,11.329 293.877,9.143 C293.689,8.712 293.5,8.282 293.292,7.852 C293.207,7.697 293.344,7.507 293.516,7.542 C311.145,10.761 324.503,26.203 324.503,44.778 Z M296.908,26.065 C296.012,43.676 283.101,58.103 266.231,61.305 C283.067,58.051 295.996,43.384 296.908,26.065 Z M296.959,24.085 C296.959,24.103 296.959,24.103 296.959,24.12 C296.959,24.774 296.942,25.428 296.908,26.065 C296.012,43.676 283.101,58.103 266.231,61.305 C265.628,61.425 265.026,61.528 264.406,61.614 C263.837,61.7 263.27,61.77 262.684,61.821 C261.497,61.941 260.309,61.993 259.086,61.993 C258.622,61.993 258.139,61.976 257.674,61.958 C257.331,61.958 257.003,61.924 256.659,61.907 C256.469,61.907 256.28,61.89 256.091,61.872 C255.815,61.838 255.54,61.821 255.282,61.787 C254.679,61.735 254.077,61.666 253.474,61.563 C253.181,61.528 252.906,61.477 252.614,61.425 C250.134,56.398 248.757,50.751 248.757,44.778 C248.757,23.862 265.714,6.905 286.63,6.905 C288.833,6.905 291.003,7.094 293.103,7.473 C293.378,8.024 293.637,8.575 293.877,9.143 C294.825,11.329 295.565,13.636 296.082,16.029 C296.202,16.528 296.305,17.045 296.391,17.561 C296.512,18.267 296.615,18.99 296.701,19.713 C296.788,20.367 296.838,21.039 296.874,21.71 C296.89,21.882 296.908,22.071 296.908,22.261 C296.942,22.863 296.959,23.466 296.959,24.085 Z M319.339,139.461 C319.339,145.469 318.151,151.219 316,156.452 C307.891,162.805 297.7,166.558 286.63,166.558 C260.257,166.558 238.875,145.176 238.875,118.803 C238.875,116.427 239.048,114.103 239.392,111.831 C247.57,101.398 260.292,94.702 274.58,94.702 C299.3,94.702 319.339,114.74 319.339,139.461 Z" id="Stroke-1" stroke="#FFFFFF" stroke-width="6.886"></path>
        <path d="M446.833,54.04 C444.303,62.389 438.966,69.533 431.925,74.354 C425.848,78.502 418.48,80.93 410.579,80.93 C402.66,80.93 395.309,78.502 389.232,74.354 C379.264,67.536 372.706,56.054 372.706,43.057 C372.706,27.081 382.604,13.412 396.583,7.852 L397.857,9.022 L445.56,52.869 L446.833,54.04 Z M448.434,42.041 C448.538,45.622 448.125,49.082 447.298,52.387 C447.109,53.145 446.145,53.403 445.56,52.869 L397.857,9.022 C397.271,8.489 397.46,7.507 398.201,7.249 C403.331,5.476 409.012,4.77 414.882,5.425 C433.474,7.473 447.953,23.345 448.434,42.041 Z" id="Stroke-3" stroke="#FFFFFF" stroke-width="6.886"></path>
    </g>
</svg>